<?xml version="1.0" encoding="utf-8"?><!-- Uploaded to: SVG Repo, www.svgrepo.com, Generator: SVG Repo Mixer Tools -->
<svg fill="#000000" width="800px" height="800px" viewBox="0 0 1024 1024" xmlns="http://www.w3.org/2000/svg"><path d="M 346.5546 32.3183 c 7.6804 0 19.7673 5.502 24.8164 11.2959 l 104.0333 119.4725 l 21.623 -18.8286 l -104.0361 -119.476 c -10.4965 -12.0463 -30.4661 -21.1358 -46.4366 -21.1358 H 294.945 c -22.6506 0 -34.699 20.0739 -24.0289 40.0554 l 61.2206 114.7062 l 25.2945 -13.5002 l -60.0908 -112.5901 h 49.2135 z M 336.8589 295.176 l -23.0307 -17.0779 l -112.6307 151.8902 c -14.0602 18.9658 -3.395 40.1499 20.2104 40.1499 h 71.68 c 15.6394 0 35.8029 -8.3783 46.8377 -19.46 L 493.199 296.7531 l -20.3175 -20.2314 l -153.2734 153.9258 c -5.6539 5.6784 -18.5066 11.0187 -26.5202 11.0187 h -64.7066 l 108.4783 -146.2895 z M 178.3985 167.6486 h 422.1952 c 47.5055 0 86.016 38.5105 86.016 86.016 c 0 7.9163 -6.4197 14.336 -14.336 14.336 H 143.2753 v 28.672 h 528.9984 c 23.7517 0 43.008 -19.2563 43.008 -43.008 c 0 -63.3402 -51.3478 -114.688 -114.688 -114.688 H 178.3985 v 28.672 z M 162.2705 268.072 h -14.8449 c -24.5483 0 -46.375 -15.6254 -54.2892 -38.8633 L 29.0696 41.0074 c -1.5813 -4.6473 1.8781 -9.4794 6.7858 -9.4794 h 26.9661 c 2.6278 0 7.3192 2.7923 8.575 5.1058 l 53.9945 99.5239 l 25.2021 -13.6731 l -53.9966 -99.5274 c -6.2727 -11.5542 -20.6339 -20.1012 -33.775 -20.1012 H 35.8554 c -24.5539 0 -41.8376 24.1416 -33.929 47.3886 l 64.0682 188.2055 c 11.8713 34.8565 44.6096 58.2939 81.431 58.2939 h 14.8449 v -28.672 z M 179.4044 138.9458 c -13.2867 0 -25.1433 -7.8169 -30.5011 -19.7239 l -26.1471 11.7649 c 9.947 22.1067 31.9767 36.631 56.6475 36.631 v -28.672 z"/></svg>