<?xml version="1.0" encoding="utf-8"?><!-- Uploaded to: SVG Repo, www.svgrepo.com, Generator: SVG Repo Mixer Tools -->
<svg fill="#000000" width="800px" height="800px" viewBox="0 0 1024 1024" xmlns="http://www.w3.org/2000/svg"><path d="M 495.078 46.169 c 10.972 0 28.239 7.86 35.452 16.137 l 148.619 170.675 l 30.89 -26.898 l -148.623 -170.68 c -14.995 -17.209 -43.523 -30.194 -66.338 -30.194 H 421.35 c -32.358 0 -49.57 28.677 -34.327 57.222 l 87.458 163.866 l 36.135 -19.286 l -85.844 -160.843 h 70.305 z M 481.227 421.68 l -32.901 -24.397 l -160.901 216.986 c -20.086 27.094 -4.85 57.357 28.872 57.357 h 102.4 c 22.342 0 51.147 -11.969 66.911 -27.8 L 704.57 423.933 l -29.025 -28.902 l -218.962 219.894 c -8.077 8.112 -26.438 15.741 -37.886 15.741 h -92.438 l 154.969 -208.985 z M 254.855 239.498 h 603.136 c 67.865 0 122.88 55.015 122.88 122.88 c 0 11.309 -9.171 20.48 -20.48 20.48 H 204.679 v 40.96 h 755.712 c 33.931 0 61.44 -27.509 61.44 -61.44 c 0 -90.486 -73.354 -163.84 -163.84 -163.84 H 254.855 v 40.96 z M 231.815 382.96 h -21.207 c -35.069 0 -66.25 -22.322 -77.556 -55.519 L 41.528 58.582 c -2.259 -6.639 2.683 -13.542 9.694 -13.542 h 38.523 c 3.754 0 10.456 3.989 12.25 7.294 l 77.135 142.177 l 36.003 -19.533 l -77.138 -142.182 c -8.961 -16.506 -29.477 -28.716 -48.25 -28.716 H 51.222 c -35.077 0 -59.768 34.488 -48.47 67.698 l 91.526 268.865 c 16.959 49.795 63.728 83.277 116.33 83.277 h 21.207 v -40.96 z M 256.292 198.494 c -18.981 0 -35.919 -11.167 -43.573 -28.177 l -37.353 16.807 c 14.21 31.581 45.681 52.33 80.925 52.33 v -40.96 z"/></svg>