<!DOCTYPE svg PUBLIC "-//W3C//DTD SVG 1.1//EN" "http://www.w3.org/Graphics/SVG/1.1/DTD/svg11.dtd">

<!-- Uploaded to: SVG Repo, www.svgrepo.com, Transformed by: SVG Repo Mixer Tools -->
<svg fill="#000000" height="800px" width="800px" version="1.1" id="Capa_1" xmlns="http://www.w3.org/2000/svg" xmlns:xlink="http://www.w3.org/1999/xlink" viewBox="0 0 482.9 482.9" xml:space="preserve">

<g id="SVGRepo_bgCarrier" stroke-width="0"/>

<g id="SVGRepo_tracerCarrier" stroke-linecap="round" stroke-linejoin="round"/>

<g id="SVGRepo_iconCarrier"> <g> <g> <path d="M 209.7 260.2 c 0.5 0 1 0 1.6 0 c 0.2 0 0.4 0 0.6 0 c 0.3 0 0.7 0 1 0 c 29.3 -0.5 53 -10.8 70.5 -30.5 c 38.5 -43.4 32.1 -117.8 31.4 -124.9 c -2.5 -53.3 -27.7 -78.8 -48.5 -90.7 C 250.8 5.2 232.7 0.4 212.5 0 h -0.7 c -0.1 0 -0.3 0 -0.4 0 h -0.6 c -11.1 0 -32.9 1.8 -53.8 13.7 c -21 11.9 -46.6 37.4 -49.1 91.1 c -0.7 7.1 -7.1 81.5 31.4 124.9 C 156.7 249.4 180.4 259.7 209.7 260.2 z M 134.6 107.3 c 0 -0.3 0.1 -0.6 0.1 -0.8 c 3.3 -71.7 54.2 -79.4 76 -79.4 h 0.4 c 0.2 0 0.5 0 0.8 0 c 27 0.6 72.9 11.6 76 79.4 c 0 0.3 0 0.6 0.1 0.8 c 0.1 0.7 7.1 68.7 -24.7 104.5 c -12.6 14.2 -29.4 21.2 -51.5 21.4 c -0.2 0 -0.3 0 -0.5 0 l 0 0 c -0.2 0 -0.3 0 -0.5 0 c -22 -0.2 -38.9 -7.2 -51.4 -21.4 C 127.7 176.2 134.5 107.9 134.6 107.3 z M 416.8 383.6 c 0 -0.1 0 -0.2 0 -0.3 c 0 -0.8 -0.1 -1.6 -0.1 -2.5 c -0.6 -19.8 -1.9 -66.1 -45.3 -80.9 c -0.3 -0.1 -0.7 -0.2 -1 -0.3 c -45.1 -11.5 -82.6 -37.5 -83 -37.8 c -6.1 -4.3 -14.5 -2.8 -18.8 3.3 c -4.3 6.1 -2.8 14.5 3.3 18.8 c 1.7 1.2 41.5 28.9 91.3 41.7 c 23.3 8.3 25.9 33.2 26.6 56 c 0 0.9 0 1.7 0.1 2.5 c 0.1 9 -0.5 22.9 -2.1 30.9 c -16.2 9.2 -79.7 41 -176.3 41 c -96.2 0 -160.1 -31.9 -176.4 -41.1 c -1.6 -8 -2.3 -21.9 -2.1 -30.9 c 0 -0.8 0.1 -1.6 0.1 -2.5 c 0.7 -22.8 3.3 -47.7 26.6 -56 c 49.8 -12.8 89.6 -40.6 91.3 -41.7 c 6.1 -4.3 7.6 -12.7 3.3 -18.8 c -4.3 -6.1 -12.7 -7.6 -18.8 -3.3 c -0.4 0.3 -37.7 26.3 -83 37.8 c -0.4 0.1 -0.7 0.2 -1 0.3 c -43.4 14.9 -44.7 61.2 -45.3 80.9 c 0 0.9 0 1.7 -0.1 2.5 c 0 0.1 0 0.2 0 0.3 c -0.1 5.2 -0.2 31.9 5.1 45.3 c 1 2.6 2.8 4.8 5.2 6.3 c 3 2 74.9 47.8 195.2 47.8 s 192.2 -45.9 195.2 -47.8 c 2.3 -1.5 4.2 -3.7 5.2 -6.3 C 417 415.5 416.9 388.8 416.8 383.6 z"/> </g> </g> </g>

</svg>