<?xml version="1.0" encoding="utf-8"?><!-- Uploaded to: SVG Repo, www.svgrepo.com, Generator: SVG Repo Mixer Tools -->
<svg width="800px" height="800px" viewBox="0 0 128 128" xmlns="http://www.w3.org/2000/svg" xmlns:xlink="http://www.w3.org/1999/xlink" aria-hidden="true" role="img" class="iconify iconify--noto" preserveAspectRatio="xMidYMid meet"><path d="M 421.48 411.08 L 271.12 11.24 a 8.968 8.968 78.2895 0 0 -8.4 -5.8 H 169.28 c -3.76 0 -7.08 2.32 -8.4 5.8 l -150.36 399.84 c -1.04 2.76 -0.68 5.84 1 8.24 s 4.4 3.88 7.36 3.88 h 98.56 c 3.84 0 7.28 -2.48 8.52 -6.16 l 22.8 -68.72 H 283.2 l 22.84 68.72 c 1.2 3.68 4.64 6.16 8.52 6.16 h 98.56 a 8.944 8.944 45 0 0 8.36 -12.12 z m -244.56 -147.6 L 216 145.8 l 39.08 117.72 H 176.92 z" fill="#40C0E7"></path></svg>