<?xml version="1.0" encoding="iso-8859-1"?>
<!-- Uploaded to: SVG Repo, www.svgrepo.com, Generator: SVG Repo Mixer Tools -->
<svg fill="#000000" height="800px" width="800px" version="1.1" id="Layer_1" xmlns="http://www.w3.org/2000/svg" xmlns:xlink="http://www.w3.org/1999/xlink" 
	 viewBox="0 0 512 512" xml:space="preserve">
<g>
	<g>
		<g>
			<path d="M 157.733 474.933 H 149.2 c -12.723 0 -25.6 -5.862 -25.6 -17.067 c 0 -4.224 0 -17.067 25.6 -17.067 c 3.132 0 5.999 -1.732 7.492 -4.489 c 1.493 -2.756 1.34 -6.118 -0.367 -8.738 c -0.162 -0.247 -15.659 -24.559 -15.659 -72.107 c 0 -11.375 2.884 -21.231 8.585 -29.312 c 2.722 -3.849 1.8 -9.173 -2.048 -11.887 c -3.857 -2.722 -9.173 -1.801 -11.887 2.048 c -7.305 10.342 -11.085 22.648 -11.537 36.506 c -7.091 -2.731 -16.811 -8.073 -24.55 -18.62 c -12.143 -16.529 -15.471 -40.439 -9.899 -71.074 c 4.215 -23.194 -8.892 -37.606 -22.852 -41.182 c -11.989 -3.063 -26.487 1.152 -33.664 14.541 c -17.169 2.901 -28.681 18.347 -28.681 32.367 c 0 4.873 1.434 9.173 4.139 12.433 c 3.166 3.814 7.885 5.914 13.269 5.914 c 18.79 0 25.6 -15.309 25.6 -25.6 v -15.539 c 2.97 -7.142 9.609 -8.986 15.095 -7.578 c 6.571 1.681 12.732 8.235 10.3 21.589 c -6.443 35.43 -2.091 63.77 12.928 84.233 c 12.612 17.169 29.423 24.03 38.716 26.65 c 1.724 25.122 7.305 43.196 11.819 53.965 c -18.679 3.627 -29.466 15.377 -29.466 32.947 c 0 19.78 17.946 34.133 42.667 34.133 h 8.533 c 4.71 0 8.533 -3.823 8.533 -8.533 S 162.444 474.933 157.733 474.933 z M 30.075 261.498 c -0.094 3.942 -1.655 8.636 -8.627 8.943 c -0.444 -0.759 -0.546 -4.275 1.852 -8.439 c 0.956 -1.673 3.089 -4.719 6.775 -6.784 V 261.498 z M 311.496 424.22 c 0.316 -10.274 1.263 -29.278 4.079 -50.56 c 0.623 -4.668 -2.662 -8.96 -7.339 -9.574 c -4.625 -0.614 -8.96 2.662 -9.574 7.339 c -2.944 22.195 -3.908 41.668 -4.232 52.309 h -0.162 c -4.71 0 -8.533 3.823 -8.533 8.533 c 0 4.71 3.823 8.533 8.533 8.533 h 8.533 c 25.6 0 25.6 12.843 25.6 17.067 c 0 11.204 -12.877 17.067 -25.6 17.067 h -8.533 c -14.114 0 -25.6 -11.486 -25.6 -25.6 v -68.267 c 0 -4.71 -3.823 -8.533 -8.533 -8.533 c -4.71 0 -8.533 3.823 -8.533 8.533 v 68.267 c 0 14.114 -11.486 25.6 -25.6 25.6 h -8.533 c -12.723 0 -25.6 -5.862 -25.6 -17.067 c 0 -4.224 0 -17.067 25.6 -17.067 H 226 c 4.71 0 8.533 -3.823 8.533 -8.533 c 0 -4.71 -3.823 -8.533 -8.533 -8.533 h -0.162 c -0.324 -10.624 -1.289 -30.054 -4.233 -52.215 c -0.614 -4.676 -4.941 -7.936 -9.574 -7.339 c -4.676 0.614 -7.962 4.907 -7.339 9.583 c 2.807 21.205 3.755 40.192 4.079 50.466 c -21.444 2.517 -33.971 14.694 -33.971 33.638 c 0 19.78 17.946 34.133 42.667 34.133 H 226 c 13.943 0 26.342 -6.724 34.133 -17.092 c 7.791 10.368 20.19 17.092 34.133 17.092 h 8.533 c 24.721 0 42.667 -14.353 42.667 -34.133 C 345.467 438.923 332.94 426.746 311.496 424.22 z M 384.268 424.919 c 5.402 -12.885 12.399 -36.053 12.399 -69.453 c 0 -14.942 -3.925 -28.092 -11.674 -39.091 c -2.714 -3.849 -8.038 -4.779 -11.887 -2.074 c -3.857 2.722 -4.779 8.038 -2.065 11.895 c 5.683 8.064 8.559 17.911 8.559 29.269 c 0 47.548 -15.497 71.859 -15.633 72.064 c -1.749 2.62 -1.911 5.99 -0.427 8.764 c 1.485 2.773 4.378 4.506 7.526 4.506 c 25.6 0 25.6 12.843 25.6 17.067 c 0 11.204 -12.877 17.067 -25.6 17.067 h -8.533 c -4.71 0 -8.533 3.823 -8.533 8.533 s 3.823 8.533 8.533 8.533 h 8.533 c 24.721 0 42.667 -14.353 42.667 -34.133 C 413.733 440.297 402.947 428.546 384.268 424.919 z M 447.867 14.133 c 0 -3.234 -1.826 -6.187 -4.719 -7.629 c -26.701 -13.346 -47.855 -4.284 -58.94 5.35 C 352.131 -8.838 309.345 -20 260.133 -20 c -49.05 0 -91.708 11.068 -123.742 31.625 c -11.392 -9.523 -32.794 -18.372 -59.273 -5.12 c -2.893 1.442 -4.719 4.395 -4.719 7.629 c 0 26.718 9.66 44.143 15.411 52.156 C 77.452 86.658 72.4 108.742 72.4 133.6 c 0 1.126 0.043 2.27 0.085 3.413 l 0.06 1.681 c 0.06 2.313 1.05 4.497 2.748 6.059 c 1.698 1.57 3.883 2.338 6.263 2.244 c 1.553 -0.085 3.106 -0.102 4.685 -0.051 c -3.831 4.139 -7.228 8.934 -10.163 14.379 c -0.896 1.647 -1.22 3.558 -0.922 5.41 c 8.166 50.441 33.502 100.036 69.53 136.081 c 2.79 2.79 7.151 3.302 10.505 1.237 c 2.697 -1.655 5.402 -3.089 8.149 -4.309 c -0.768 4.07 -1.468 8.269 -2.099 12.57 c -0.444 3.046 0.785 6.093 3.217 7.979 c 24.969 19.396 51.823 30.891 79.795 34.15 c 1.911 0.222 3.806 -0.196 5.436 -1.186 c 4.122 -2.517 7.603 -5.726 10.368 -8.798 c 2.79 3.106 6.34 6.34 10.641 8.875 c 1.323 0.768 2.816 1.169 4.326 1.169 c 0.333 0 0.657 -0.017 0.99 -0.06 c 27.972 -3.26 54.827 -14.754 79.804 -34.15 c 2.432 -1.886 3.652 -4.932 3.208 -7.979 c -0.631 -4.301 -1.331 -8.508 -2.099 -12.57 c 2.748 1.22 5.453 2.645 8.141 4.301 c 3.371 2.074 7.714 1.562 10.513 -1.229 c 17.382 -17.399 32.324 -38.042 44.407 -61.346 c 0.751 -1.451 1.075 -3.081 0.93 -4.71 c -0.99 -10.829 -2.406 -21.163 -4.25 -30.891 c 2.253 0.99 4.463 2.116 6.63 3.379 c 2.21 1.28 4.89 1.502 7.296 0.597 c 2.398 -0.905 4.267 -2.833 5.077 -5.274 c 8.09 -24.115 12.194 -48 12.194 -70.972 c 0 -25.25 -4.915 -46.805 -15.411 -67.32 C 438.215 58.268 447.867 40.843 447.867 14.133 z M 422.429 189.766 c -5.043 -2.133 -10.249 -3.738 -15.556 -4.796 c -2.876 -0.589 -5.837 0.358 -7.851 2.475 c -2.014 2.116 -2.807 5.12 -2.099 7.962 c 3.055 12.203 5.325 25.796 6.758 40.405 c -9.992 18.833 -21.973 35.721 -35.695 50.313 c -6.69 -3.413 -13.679 -5.862 -20.847 -7.287 c -2.867 -0.58 -5.828 0.358 -7.851 2.475 c -2.014 2.116 -2.807 5.12 -2.099 7.962 c 1.587 6.366 2.995 13.252 4.181 20.54 c -20.395 14.959 -41.984 24.124 -64.273 27.29 c -5.854 -4.437 -9.335 -11.059 -9.353 -11.102 c -1.434 -2.816 -4.318 -4.599 -7.475 -4.651 c -3.081 0 -6.101 1.647 -7.62 4.429 c -0.043 0.068 -3.789 6.784 -9.557 11.307 c -22.264 -3.166 -43.827 -12.331 -64.196 -27.273 c 1.186 -7.279 2.586 -14.165 4.181 -20.54 c 0.708 -2.842 -0.085 -5.845 -2.099 -7.962 s -4.984 -3.046 -7.851 -2.475 c -7.168 1.434 -14.157 3.874 -20.847 7.287 c -30.071 -32.051 -52.13 -75.947 -59.776 -119.168 c 4.736 -7.859 10.726 -13.636 17.843 -17.186 c 3.089 -1.553 4.941 -4.796 4.702 -8.243 c -0.247 -3.439 -2.543 -6.4 -5.82 -7.492 c -6.63 -2.21 -13.235 -3.55 -19.729 -4.002 c 0.486 -22.733 5.581 -42.052 15.94 -60.527 c 1.843 -3.294 1.263 -7.45 -1.365 -10.163 c -0.555 -0.572 -12.885 -13.602 -14.447 -39.731 c 14.865 -5.692 25.813 -1.741 32.333 2.492 c -4.642 3.823 -8.986 7.876 -13.005 12.186 c -3.217 3.447 -3.029 8.841 0.418 12.058 c 1.638 1.536 3.729 2.295 5.82 2.295 c 2.278 0 4.557 -0.905 6.238 -2.705 c 29.44 -31.514 78.694 -48.87 138.701 -48.87 c 59.947 0 109.193 17.331 138.65 48.802 c 3.217 3.439 8.61 3.618 12.058 0.401 c 3.439 -3.217 3.618 -8.619 0.401 -12.058 c -3.934 -4.198 -8.183 -8.158 -12.706 -11.895 c 6.263 -4.292 17.058 -8.482 32.102 -2.705 c -1.562 26.129 -13.884 39.159 -14.404 39.689 c -2.705 2.705 -3.277 6.878 -1.408 10.214 C 425.723 88.911 430.8 109.28 430.8 133.6 C 430.8 151.767 427.984 170.618 422.429 189.766 z M 191.867 129.333 c 0 7.057 5.743 12.8 12.8 12.8 c 7.057 0 12.8 -5.743 12.8 -12.8 c 0 -7.057 -5.743 -12.8 -12.8 -12.8 C 197.61 116.533 191.867 122.276 191.867 129.333 z M 195.681 81.504 c 15.019 -7.509 38.622 -7.637 38.861 -7.637 c 4.702 -0.009 8.525 -3.823 8.525 -8.533 c 0 -1.604 -0.452 -5.726 -4.164 -12.305 c 9.412 4.215 15.121 9.728 15.198 9.805 c 3.2 3.2 8.866 3.2 12.066 0 c 0.094 -0.085 5.751 -5.658 15.241 -9.882 c -3.746 6.622 -4.207 10.769 -4.207 12.382 c 0 4.71 3.823 8.525 8.525 8.533 c 0.239 0 23.842 0.128 38.861 7.637 c 1.22 0.606 2.526 0.896 3.806 0.896 c 3.132 0 6.144 -1.724 7.646 -4.719 c 2.108 -4.216 0.393 -9.336 -3.823 -11.443 c -10.65 -5.333 -23.919 -7.646 -33.553 -8.661 c 2.176 -3.089 5.402 -7.031 10.172 -11.81 c 2.441 -2.441 3.174 -6.11 1.852 -9.301 c -1.323 -3.183 -4.437 -5.265 -7.885 -5.265 c -19.644 0 -34.782 8.73 -42.667 14.541 C 252.249 39.93 237.11 31.2 217.467 31.2 c -3.447 0 -6.562 2.082 -7.885 5.265 c -1.323 3.191 -0.589 6.861 1.852 9.301 c 4.796 4.796 8.021 8.738 10.197 11.81 c -9.643 1.015 -22.929 3.328 -33.579 8.661 c -4.215 2.108 -5.931 7.228 -3.823 11.443 C 186.346 81.897 191.457 83.629 195.681 81.504 z M 358.719 91.838 c -4.215 2.108 -5.931 7.228 -3.823 11.443 c 0.085 0.154 7.637 15.539 7.637 38.852 c 0 14.259 -7.33 23.219 -16.614 34.569 c -5.606 6.844 -11.588 14.268 -16.614 23.509 c -1.638 -2.475 -3.029 -4.002 -3.405 -4.378 c -3.285 -3.285 -8.567 -3.285 -11.913 -0.043 c -3.354 3.234 -3.43 8.61 -0.247 12.015 c 0.247 0.265 6.127 6.699 6.127 19.661 c 0 21.154 -13.918 25.6 -25.6 25.6 c -14.822 0 -21.495 -11.238 -24.115 -18.944 c 14.268 -5.385 24.115 -21.257 24.115 -32.256 c 0 -0.341 -0.119 -0.572 -0.137 -0.896 c -0.017 -0.171 0.051 -0.333 0.017 -0.512 l -8.533 -51.2 c -0.777 -4.634 -5.129 -7.782 -9.822 -7.006 c -4.642 0.777 -7.782 5.171 -7.006 9.822 l 5.547 33.263 c -4.668 -0.478 -9.583 -0.538 -14.199 -0.538 c -4.608 0 -9.532 0.06 -14.199 0.538 l 5.547 -33.263 c 0.777 -4.651 -2.364 -9.045 -7.006 -9.822 c -4.693 -0.777 -9.045 2.372 -9.822 7.006 l -8.533 51.2 c -0.034 0.179 0.034 0.341 0.017 0.512 c -0.017 0.324 -0.137 0.555 -0.137 0.896 c 0 10.999 9.847 26.871 24.115 32.256 c -2.62 7.706 -9.293 18.944 -24.115 18.944 c -11.682 0 -25.6 -4.446 -25.6 -25.6 c 0 -12.962 5.88 -19.396 6.033 -19.567 c 3.337 -3.337 3.337 -8.73 0 -12.066 s -8.73 -3.337 -12.066 0 c -0.375 0.375 -1.766 1.903 -3.405 4.378 c -5.026 -9.242 -11.008 -16.666 -16.614 -23.509 c -9.284 -11.349 -16.614 -20.309 -16.614 -34.569 c 0 -23.049 7.569 -38.724 7.646 -38.878 c 2.091 -4.207 0.375 -9.318 -3.831 -11.418 c -4.233 -2.116 -9.344 -0.401 -11.452 3.814 c -0.384 0.768 -9.429 19.183 -9.429 46.481 c 0 20.361 10.411 33.075 20.471 45.372 c 9.054 11.068 18.398 22.519 22.246 41.182 c 0.341 17.783 7.851 28.902 18.099 35.089 c 4.941 15.582 22.101 40.491 58.65 40.491 c 36.548 0 53.709 -24.909 58.65 -40.491 c 10.249 -6.187 17.758 -17.306 18.099 -35.089 c 3.849 -18.662 13.193 -30.114 22.246 -41.182 c 10.061 -12.297 20.471 -25.011 20.471 -45.372 c 0 -27.298 -9.054 -45.713 -9.438 -46.481 C 368.063 91.437 362.934 89.722 358.719 91.838 z M 243.161 202.882 c 3.226 -1.015 11.375 -1.015 16.973 -1.015 c 5.598 0 13.756 0 16.981 1.015 c -0.905 5.675 -8.687 16.051 -16.981 16.051 C 251.856 218.933 244.074 208.582 243.161 202.882 z M 260.133 287.2 c -19.413 0 -30.362 -8.943 -36.343 -17.143 c 0.742 0.034 1.476 0.077 2.21 0.077 c 16.145 0 27.281 -8.311 34.133 -18.21 c 6.852 9.899 17.988 18.21 34.133 18.21 c 0.785 0 1.57 -0.051 2.355 -0.085 C 290.717 278.249 279.786 287.2 260.133 287.2 z M 315.6 116.533 c -7.057 0 -12.8 5.743 -12.8 12.8 c 0 7.057 5.743 12.8 12.8 12.8 s 12.8 -5.743 12.8 -12.8 C 328.4 122.276 322.657 116.533 315.6 116.533 z"/>
		</g>
	</g>
</g>
</svg>