<?xml version="1.0" encoding="utf-8"?>
<!-- Uploaded to: SVG Repo, www.svgrepo.com, Generator: SVG Repo Mixer Tools -->
<svg fill="#000000" width="800px" height="800px" viewBox="-9.5 0 32 32" version="1.1" xmlns="http://www.w3.org/2000/svg">
<title>s</title>
<path d="M 180.62 80.62 l 28.12 -29.38 c -31.26 -30.62 -63.12 -46.26 -94.38 -46.26 c -26.88 0 -48.76 8.76 -66.88 25.62 c -17.5 17.5 -26.26 38.76 -26.26 64.38 c 0 20 5.62 36.88 16.26 53.12 c 10.62 15.62 32.5 30.62 63.12 46.88 c 28.12 15 46.88 26.26 55 35.62 c 8.12 10 11.88 21.88 11.88 34.38 c 0 15 -6.88 28.12 -18.76 39.38 c -11.88 10.62 -26.88 16.88 -44.38 16.88 c -25 0 -48.76 -13.12 -71.26 -38.12 l -27.5 31.88 c 11.26 15 26.26 26.88 44.38 35 s 36.26 12.5 56.26 12.5 c 29.38 0 53.12 -9.38 73.12 -28.76 c 20 -20 30 -43.12 30 -70.62 c 0 -20 -6.26 -37.5 -17.5 -53.76 c -11.26 -15.62 -34.38 -31.88 -66.88 -48.76 c -26.88 -13.76 -44.38 -26.26 -52.5 -36.26 s -12.5 -20.62 -12.5 -31.26 c 0 -12.5 5.62 -23.76 15.62 -33.12 c 10 -8.76 21.88 -13.76 36.26 -13.76 c 22.5 0 45.62 11.26 68.76 34.38 z"></path>
</svg>