<?xml version="1.0" encoding="utf-8"?><!-- Uploaded to: SVG Repo, www.svgrepo.com, Generator: SVG Repo Mixer Tools -->
<svg fill="#000000" width="800px" height="800px" viewBox="0 0 1024 1024" xmlns="http://www.w3.org/2000/svg"><path d="M 708.266 614.581 h -377.18 v 40.96 h 377.18 z M 130.055 617.52 H 71.779 c -16.906 0 -30.822 -13.907 -30.822 -30.792 V 74.871 c 0 -16.885 13.917 -30.792 30.822 -30.792 h 880.435 c 16.912 0 30.822 13.903 30.822 30.792 v 511.857 c 0 16.889 -13.91 30.792 -30.822 30.792 h -35.553 v 40.96 h 35.553 c 39.528 0 71.782 -32.236 71.782 -71.752 V 74.871 c 0 -39.516 -32.254 -71.752 -71.782 -71.752 H 71.779 c -39.521 0 -71.782 32.239 -71.782 71.752 v 511.857 c 0 39.513 32.261 71.752 71.782 71.752 h 58.276 v -40.96 z M 314.805 636.646 c 0 -44.737 -36.27 -81.009 -81.009 -81.009 c -44.73 0 -80.998 36.273 -80.998 81.009 s 36.268 81.009 80.998 81.009 c 44.739 0 81.009 -36.272 81.009 -81.009 z m 40.96 0 c 0 67.358 -54.607 121.969 -121.969 121.969 c -67.353 0 -121.958 -54.613 -121.958 -121.969 s 54.605 -121.969 121.958 -121.969 c 67.361 0 121.969 54.611 121.969 121.969 z m 535.331 0 c 0 -44.737 -36.27 -81.009 -81.009 -81.009 c -44.73 0 -80.998 36.273 -80.998 81.009 s 36.268 81.009 80.998 81.009 c 44.739 0 81.009 -36.272 81.009 -81.009 z m 40.96 0 c 0 67.358 -54.607 121.969 -121.969 121.969 c -67.353 0 -121.958 -54.613 -121.958 -121.969 s 54.605 -121.969 121.958 -121.969 c 67.361 0 121.969 54.611 121.969 121.969 z m 62.931 -292.402 H 759.805 a 10.238 10.238 0 0 1 -10.24 -10.24 V 33.839 h -40.96 v 300.165 c 0 28.278 22.922 51.2 51.2 51.2 h 235.182 v -40.96 z m -378.283 0.171 c 5.657 0 10.24 -4.583 10.24 -10.24 V 136.543 c 0 -5.657 -4.583 -10.24 -10.24 -10.24 H 133.622 a 10.238 10.238 0 0 0 -10.24 10.24 v 197.632 c 0 5.657 4.583 10.24 10.24 10.24 h 483.082 z m 0 40.96 H 133.622 c -28.278 0 -51.2 -22.922 -51.2 -51.2 V 136.543 c 0 -28.278 22.922 -51.2 51.2 -51.2 h 483.082 c 28.278 0 51.2 22.922 51.2 51.2 v 197.632 c 0 28.278 -22.922 51.2 -51.2 51.2 z M 354.685 118.111 v 239.892 h 40.96 V 118.111 z"/></svg>